<svg xmlns="http://www.w3.org/2000/svg" xmlns:xlink="http://www.w3.org/1999/xlink" version="1.1" id="Capa_1" x="0px" y="0px" viewBox="0 0 512 512" style="enable-background:new 0 0 512 512;" xml:space="preserve">
<path style="fill: #c70707;" d="M482.495,396.243H29.503C13.209,396.243,0,383.034,0,366.739V145.26  c0-16.294,13.209-29.503,29.503-29.503h452.991c16.294,0,29.503,13.209,29.503,29.503v221.479  C511.998,383.034,498.789,396.243,482.495,396.243z"/>
<path style="fill: #e01010;" d="M512,145.261v221.478c0,16.296-13.21,29.506-29.506,29.506h-45.358  c16.296,0,29.506-13.21,29.506-29.506V145.261c0-16.296-13.21-29.506-29.506-29.506h45.358C498.789,115.754,512,128.965,512,145.261  z"/>
<path style="fill:#E1E6E9;" d="M434.806,344.287H77.192c-11.412,0-20.663-9.251-20.663-20.663V188.376  c0-11.412,9.251-20.663,20.663-20.663h357.613c11.412,0,20.663,9.251,20.663,20.663v135.248  C455.469,335.036,446.218,344.287,434.806,344.287z"/>
<path style="fill: #D2D6D8;" d="M455.474,188.38v135.24c0,11.414-9.257,20.672-20.672,20.672h-33.356  c11.404,0,20.662-9.257,20.662-20.672V188.38c0-11.414-9.257-20.672-20.662-20.672h33.357  C446.217,167.708,455.474,176.965,455.474,188.38z"/>
<g>
	<path style="fill:#5C6777;" d="M209.882,212.123c0-1.959,1.568-3.658,3.92-3.789h23.908c15.807,0,29.002,6.271,29.002,26.129   c0,15.938-8.491,23.254-19.466,25.476l19.336,36.711c0.392,0.653,0.522,1.306,0.522,1.828c0,2.874-3.396,5.618-6.532,5.618   c-2.221,0-3.789-2.09-4.965-4.311l-19.727-38.279h-15.024v38.409c0,2.613-2.743,3.92-5.487,3.92s-5.488-1.306-5.488-3.92v-87.793   H209.882z M220.857,218.264v34.098h16.853c10.843,0,18.029-4.704,18.029-17.114c0-12.281-7.186-16.983-18.029-16.983   L220.857,218.264L220.857,218.264z"/>
	<path style="fill:#5C6777;" d="M291.797,251.447h20.38c2.352,0,3.789,2.221,3.789,4.704c0,2.09-1.175,4.442-3.789,4.442h-20.38   v33.315h40.5c2.351,0,3.789,2.351,3.789,5.095c0,2.351-1.176,4.834-3.789,4.834h-46.51c-2.482,0-4.965-1.306-4.965-3.92v-87.662   c0-2.613,2.482-3.92,4.965-3.92h46.51c2.612,0,3.789,2.482,3.789,4.834c0,2.743-1.437,5.096-3.789,5.096h-40.5V251.447z"/>
	<path style="fill:#5C6777;" d="M373.972,218.264c-11.236,0-17.376,5.879-17.376,18.551v39.324c0,12.673,6.141,18.552,17.769,18.552   c14.501,0,15.807-9.406,16.591-15.546c0.261-2.613,2.221-3.789,5.487-3.789c3.659,0,5.487,1.175,5.487,6.14   c0,12.934-10.843,23.124-28.349,23.124c-15.285,0-27.958-7.708-27.958-28.481v-39.324c0-20.772,12.803-28.48,28.088-28.48   c17.507,0,28.219,9.929,28.219,22.732c0,4.965-1.828,6.01-5.487,6.01c-3.527,0-5.356-1.437-5.487-3.789   C390.695,228.062,388.604,218.264,373.972,218.264z"/>
</g>
<circle style="fill: #e01010;" cx="139.131" cy="256.001" r="36.84"/>
<path style="fill: #e01010;" d="M175.977,255.999c0,20.344-16.499,36.844-36.844,36.844c-2.984,0-5.881-0.355-8.66-1.026  c16.168-3.892,28.183-18.457,28.183-35.817c0-17.36-12.015-31.925-28.183-35.817c2.779-0.671,5.676-1.026,8.66-1.026  C159.478,219.156,175.977,235.655,175.977,255.999z"/>
<g>
</g>
<g>
</g>
<g>
</g>
<g>
</g>
<g>
</g>
<g>
</g>
<g>
</g>
<g>
</g>
<g>
</g>
<g>
</g>
<g>
</g>
<g>
</g>
<g>
</g>
<g>
</g>
<g>
</g>
</svg>