<?xml version="1.0" encoding="utf-8"?>
<!-- Generator: Adobe Illustrator 24.0.2, SVG Export Plug-In . SVG Version: 6.00 Build 0)  -->
<svg version="1.1" id="Layer_1" xmlns="http://www.w3.org/2000/svg" xmlns:xlink="http://www.w3.org/1999/xlink" x="0px" y="0px"
	 viewBox="0 0 511 511" style="enable-background:new 0 0 511 511;fill: whitesmoke;" xml:space="preserve">
<g>
	<path d="M443.4,461.3L87.2,105.1l-20.5,20.5l101.1,101.1v47.2c0,51.9,42.2,94.1,94.1,94.1c13.8,0,26.9-3,38.8-8.4l26.9,26.9
		c-19.3,11.3-41.7,17.8-65.6,17.8c-71.9,0-130.4-58.5-130.4-130.4c0-8.1-6.6-14.7-14.7-14.7c-8.1,0-14.7,6.6-14.7,14.7
		c0,83.1,63.8,151.6,145.1,159.1v39.6h-54.5c-8.1,0-14.7,6.6-14.7,14.7c0,8.1,6.6,14.7,14.7,14.7h138.5c8.1,0,14.7-6.6,14.7-14.7
		c0-8.1-6.6-14.7-14.7-14.7h-54.5V433c26.5-2.4,51.1-11.3,72.3-25.1l74.7,74.7l20.8-20.8l-0.7-0.7L443.4,461.3z M261.9,338.6
		c-35.7,0-64.7-29-64.7-64.7v-17.8l80.5,80.5C272.6,337.9,267.3,338.6,261.9,338.6z"/>
	<path d="M391.2,367.6c19.1-26.3,30.5-58.7,30.5-93.7c0-8.1-6.6-14.7-14.7-14.7c-8.1,0-14.7,6.6-14.7,14.7
		c0,26.9-8.2,51.9-22.1,72.6L391.2,367.6z"/>
	<path d="M197.2,173.5v-70.4c0-35.7,29-64.7,64.7-64.7c35.7,0,64.7,29,64.7,64.7v170.7c0,8.6-1.7,16.8-4.8,24.3l21.9,21.9
		c7.8-13.7,12.2-29.5,12.2-46.3V103.2c0-51.9-42.2-94.1-94.1-94.1c-51.9,0-94.1,42.2-94.1,94.1v41L197.2,173.5z"/>
</g>
</svg>
