<?xml version="1.0" encoding="utf-8"?>
<!-- Generator: Adobe Illustrator 24.0.2, SVG Export Plug-In . SVG Version: 6.00 Build 0)  -->
<svg version="1.1" id="Capa_1" xmlns="http://www.w3.org/2000/svg" xmlns:xlink="http://www.w3.org/1999/xlink" x="0px" y="0px"
	 viewBox="0 0 477.9 477.9" style="enable-background:new 0 0 477.9 477.9;fill: whitesmoke;" xml:space="preserve">
<g>
	<path d="M334.9,362.2l-30.3-30.3v0.4L107.7,135.3h0.4l-32.6-32.6h-0.4L33.4,61L10.1,84.3l25.1,25.1c-14.5,8.5-24.2,24.2-24.2,42.2
		v195.8c0,27,21.9,48.9,48.9,48.9h228.4c9.6,0,18.6-2.8,26.2-7.6l28.1,28.1l23.3-23.3l-31-31C334.9,362.4,334.9,362.3,334.9,362.2z
		 M288.3,363.7H59.9c-9,0-16.3-7.3-16.3-16.3V151.6c0-9,7.3-16.3,16.3-16.3h1.2l228.4,228.4C289.1,363.7,288.7,363.7,288.3,363.7z"
		/>
	<path d="M460,137.8c-4.8-3-10.8-3.2-15.9-0.7l-106.9,53.5v-38.9c0-27-21.9-48.9-48.9-48.9H122.1l32.6,32.6h133.6
		c9,0,16.3,7.3,16.3,16.3v133.6l32.6,32.6v-9.3l106.9,53.5c8.1,4,17.9,0.8,21.9-7.3c1.1-2.3,1.7-4.8,1.7-7.4V151.6
		C467.8,146,464.8,140.7,460,137.8z M435.1,321l-97.9-48.9V227l97.9-48.9V321z"/>
</g>
</svg>
